<svg width="423" height="423" viewBox="0 0 423 423" fill="none" xmlns="http://www.w3.org/2000/svg">
<path d="M211.02 0C94.42 0 0 94.629 0 211.23C0 327.83 94.418 422.46 211.02 422.46C327.83 422.46 422.46 327.829 422.46 211.23C422.46 94.63 327.829 0 211.02 0ZM211.231 42.244C304.594 42.244 380.211 117.864 380.211 211.224C380.211 304.587 304.591 380.204 211.231 380.204C117.868 380.204 42.2507 304.584 42.2507 211.224C42.2507 117.861 117.871 42.244 211.231 42.244ZM190.11 105.614V232.354L301 298.891L316.843 272.91L221.79 216.511V105.621H190.107L190.11 105.614Z" fill="#D89362"/>
</svg>
