<svg width="60" height="60" viewBox="0 0 60 60" fill="none" xmlns="http://www.w3.org/2000/svg">
<path d="M6.39062 14.513C6.39062 12.3997 6.88926 10.4408 7.88653 8.63614C8.90757 6.80779 10.2966 5.37121 12.0538 4.32646C13.8109 3.25795 15.7105 2.72369 17.7526 2.72369C19.3672 2.72369 20.875 3.04422 22.276 3.68534C23.6769 4.32646 24.9116 5.19316 25.909 6.28538C26.93 7.3539 27.7255 8.60052 28.2953 10.0252C28.8652 11.45 29.1502 12.9459 29.1502 14.513C29.1502 16.6026 28.6516 18.5616 27.6543 20.3899C26.657 22.2183 25.2798 23.6786 23.5226 24.7708C21.7655 25.863 19.8422 26.4092 17.7526 26.4092C15.6156 26.4092 13.6685 25.8631 11.9114 24.7708C10.1542 23.6785 8.82454 22.2183 7.85097 20.3899C6.87741 18.5616 6.39062 16.5789 6.39062 14.513ZM15.0813 47.9221L38.6244 6.57029C39.3842 5.26434 40.0966 4.30263 40.7614 3.68528C41.4263 3.04416 42.2217 2.72363 43.1478 2.72363C43.9314 2.72363 44.6556 2.91359 45.3204 3.29351C45.9853 3.67343 46.5077 4.14836 46.8876 4.78942C47.2675 5.40677 47.4575 6.07165 47.4575 6.78401C47.4575 7.66257 47.2675 8.49365 46.8876 9.27725C46.5077 10.0609 45.9378 11.0344 45.178 12.2691L21.6348 53.621C20.9462 54.8794 20.2577 55.8411 19.5691 56.506C18.8805 57.1709 18.0612 57.5032 17.1114 57.5032C15.9004 57.5032 14.8794 57.0995 14.0483 56.2922C13.2172 55.4849 12.8017 54.5232 12.8017 53.4072C12.8017 52.5287 12.9798 51.7214 13.336 50.9852C13.6921 50.2491 14.2977 49.2281 15.0813 47.9221ZM14.6895 14.513C14.6895 15.5103 14.9626 16.3532 15.5087 17.0419C16.0549 17.7305 16.8266 18.0392 17.7526 18.0392C18.7024 18.0392 19.4504 17.7067 19.9965 17.0419C20.5426 16.3771 20.8157 15.5104 20.8157 14.513C20.8157 13.5157 20.5427 12.7321 19.9965 12.091C19.4503 11.4499 18.7024 11.0938 17.7526 11.0938C16.8266 11.0938 16.0786 11.4262 15.5087 12.091C14.9389 12.7559 14.6895 13.5395 14.6895 14.513ZM39.4436 45.6782C39.4436 46.6042 39.7167 47.4116 40.2628 48.1002C40.809 48.7888 41.5807 49.0975 42.5067 49.0975C43.4328 49.0975 44.1689 48.765 44.715 48.1002C45.2611 47.4354 45.5699 46.6043 45.5699 45.6782C45.5699 44.7046 45.2849 43.8855 44.715 43.2206C44.1451 42.5557 43.4328 42.1877 42.5067 42.1877C41.5807 42.1877 40.8327 42.532 40.2628 43.2206C39.693 43.9092 39.4436 44.7046 39.4436 45.6782ZM31.1092 45.6782C31.1092 43.5412 31.6078 41.5703 32.6051 39.7657C33.6261 37.9373 35.0033 36.4889 36.7367 35.4204C38.4701 34.3519 40.4172 33.782 42.5067 33.782C44.5963 33.782 46.5077 34.3281 48.2411 35.4204C49.9745 36.5127 51.3399 37.973 52.3371 39.8013C53.3582 41.606 53.8687 43.5649 53.8687 45.6782C53.8687 47.7678 53.3582 49.7148 52.3371 51.5195C51.3399 53.3241 49.9745 54.7726 48.2411 55.8648C46.5077 56.957 44.5963 57.5032 42.5067 57.5032C40.3459 57.5032 38.387 56.9689 36.6298 55.9004C34.8727 54.8319 33.543 53.3478 32.5695 51.5195C31.5959 49.6911 31.1092 47.7441 31.1092 45.6782Z" fill="#D89362"/>
</svg>
