<svg width="48" height="48" viewBox="0 0 48 48" fill="none" xmlns="http://www.w3.org/2000/svg">
<circle cx="24" cy="24" r="23" stroke="black" stroke-width="2"/>
<path d="M24.1587 28.9786C24.2647 26.506 24.5826 25.9056 26.7725 24.2102C29.4922 22.1262 29.8101 21.879 30.0573 21.6671C31.2936 20.6075 32 18.9827 32 17.2872C32 13.4372 28.8917 11 23.947 11C19.2845 11 16 13.2606 16 16.5102C16 18.4175 17.4128 19.795 19.3555 19.795C21.1569 19.795 22.3931 18.6294 22.3931 16.9693C22.3931 16.0156 22.0046 15.2386 21.2629 14.6734C20.6271 14.1789 20.5918 14.1436 20.5918 13.8963C20.5918 13.4018 21.3688 13.0133 22.4638 13.0133C24.583 13.0133 25.784 14.4261 25.784 16.8986C25.784 18.3468 25.2541 20.1482 24.3711 21.7376C22.4284 25.1991 22.1459 25.9055 22.1459 27.495C22.1459 27.8482 22.1812 28.4134 22.2519 28.9785L24.1587 28.9786ZM23.2762 30.9212C21.4395 30.9212 19.956 32.4046 19.956 34.2413C19.956 36.0427 21.4395 37.5615 23.2408 37.5615C25.1128 37.5615 26.5963 36.078 26.5963 34.2413C26.5963 32.4046 25.1128 30.9212 23.2762 30.9212Z" fill="black"/>
</svg>
